<svg width="1401" height="448" viewBox="0 0 1401 448" fill="none" xmlns="http://www.w3.org/2000/svg">
<path d="M144.602 56C144.602 25.9019 169.041 1.5 199.142 1.5C229.243 1.5 253.682 25.9019 253.682 56C253.682 86.0981 229.243 110.5 199.142 110.5C169.041 110.5 144.602 86.0981 144.602 56Z" stroke="#000013" stroke-width="3"/>
<path d="M430.807 56C430.807 25.9019 455.246 1.5 485.347 1.5C515.448 1.5 539.887 25.9019 539.887 56C539.887 86.0981 515.448 110.5 485.347 110.5C455.246 110.5 430.807 86.0981 430.807 56Z" stroke="#000013" stroke-width="3"/>
<path d="M718.012 56C718.012 25.9019 742.451 1.5 772.552 1.5C802.653 1.5 827.092 25.9019 827.092 56C827.092 86.0981 802.653 110.5 772.552 110.5C742.451 110.5 718.012 86.0981 718.012 56Z" stroke="#000013" stroke-width="3"/>
<path d="M1012.22 64C1012.22 33.9019 1036.66 9.5 1066.76 9.5C1096.86 9.5 1121.3 33.9019 1121.3 64C1121.3 94.0981 1096.86 118.5 1066.76 118.5C1036.66 118.5 1012.22 94.0981 1012.22 64Z" fill="#00000D" fill-opacity="0.667" stroke="#000013" stroke-width="3"/>
<path d="M1290.42 56C1290.42 25.9019 1314.86 1.5 1344.96 1.5C1375.06 1.5 1399.5 25.9019 1399.5 56C1399.5 86.0981 1375.06 110.5 1344.96 110.5C1314.86 110.5 1290.42 86.0981 1290.42 56Z" stroke="#000013" stroke-width="3"/>
<path d="M287.705 56C287.705 25.9019 312.144 1.5 342.245 1.5C372.346 1.5 396.785 25.9019 396.785 56C396.785 86.0981 372.346 110.5 342.245 110.5C312.144 110.5 287.705 86.0981 287.705 56Z" stroke="#000013" stroke-width="3"/>
<path d="M861.113 56C861.113 25.9019 885.552 1.5 915.653 1.5C945.754 1.5 970.193 25.9019 970.193 56C970.193 86.0981 945.754 110.5 915.653 110.5C885.552 110.5 861.113 86.0981 861.113 56Z" stroke="#000013" stroke-width="3"/>
<path d="M1.5 56C1.5 25.9019 25.9391 1.5 56.04 1.5C86.1409 1.5 110.58 25.9019 110.58 56C110.58 86.0981 86.1409 110.5 56.04 110.5C25.9391 110.5 1.5 86.0981 1.5 56Z" stroke="#000013" stroke-width="3"/>
<path d="M1139.31 64C1139.31 33.9019 1163.75 9.5 1193.85 9.5C1223.95 9.5 1248.39 33.9019 1248.39 64C1248.39 94.0981 1223.95 118.5 1193.85 118.5C1163.75 118.5 1139.31 94.0981 1139.31 64Z" fill="#00000D" fill-opacity="0.667" stroke="#000013" stroke-width="3"/>
<path d="M573.908 56C573.908 25.9019 598.347 1.5 628.448 1.5C658.549 1.5 682.988 25.9019 682.988 56C682.988 86.0981 658.549 110.5 628.448 110.5C598.347 110.5 573.908 86.0981 573.908 56Z" stroke="#000013" stroke-width="3"/>
<path d="M144.602 199C144.602 168.902 169.041 144.5 199.142 144.5C229.243 144.5 253.682 168.902 253.682 199C253.682 229.098 229.243 253.5 199.142 253.5C169.041 253.5 144.602 229.098 144.602 199Z" stroke="#000013" stroke-width="3"/>
<path d="M430.807 199C430.807 168.902 455.246 144.5 485.347 144.5C515.448 144.5 539.887 168.902 539.887 199C539.887 229.098 515.448 253.5 485.347 253.5C455.246 253.5 430.807 229.098 430.807 199Z" stroke="#000013" stroke-width="3"/>
<path d="M718.012 199C718.012 168.902 742.451 144.5 772.552 144.5C802.653 144.5 827.092 168.902 827.092 199C827.092 229.098 802.653 253.5 772.552 253.5C742.451 253.5 718.012 229.098 718.012 199Z" stroke="#000013" stroke-width="3"/>
<path d="M1012.22 191C1012.22 160.902 1036.66 136.5 1066.76 136.5C1096.86 136.5 1121.3 160.902 1121.3 191C1121.3 221.098 1096.86 245.5 1066.76 245.5C1036.66 245.5 1012.22 221.098 1012.22 191Z" fill="#00000D" fill-opacity="0.667" stroke="#000013" stroke-width="3"/>
<path d="M1290.42 199C1290.42 168.902 1314.86 144.5 1344.96 144.5C1375.06 144.5 1399.5 168.902 1399.5 199C1399.5 229.098 1375.06 253.5 1344.96 253.5C1314.86 253.5 1290.42 229.098 1290.42 199Z" stroke="#000013" stroke-width="3"/>
<path d="M1.5 199C1.5 168.902 25.9391 144.5 56.04 144.5C86.1409 144.5 110.58 168.902 110.58 199C110.58 229.098 86.1409 253.5 56.04 253.5C25.9391 253.5 1.5 229.098 1.5 199Z" stroke="#000013" stroke-width="3"/>
<path d="M573.908 199C573.908 168.902 598.347 144.5 628.448 144.5C658.549 144.5 682.988 168.902 682.988 199C682.988 229.098 658.549 253.5 628.448 253.5C598.347 253.5 573.908 229.098 573.908 199Z" stroke="#000013" stroke-width="3"/>
<path d="M1139.31 191C1139.31 160.902 1163.75 136.5 1193.85 136.5C1223.95 136.5 1248.39 160.902 1248.39 191C1248.39 221.098 1223.95 245.5 1193.85 245.5C1163.75 245.5 1139.31 221.098 1139.31 191Z" fill="#00000D" fill-opacity="0.667" stroke="#000013" stroke-width="3"/>
<path d="M861.113 199C861.113 168.902 885.552 144.5 915.653 144.5C945.754 144.5 970.193 168.902 970.193 199C970.193 229.098 945.754 253.5 915.653 253.5C885.552 253.5 861.113 229.098 861.113 199Z" stroke="#000013" stroke-width="3"/>
<path d="M287.705 199C287.705 168.902 312.144 144.5 342.245 144.5C372.346 144.5 396.785 168.902 396.785 199C396.785 229.098 372.346 253.5 342.245 253.5C312.144 253.5 287.705 229.098 287.705 199Z" stroke="#000013" stroke-width="3"/>
<path d="M144.602 342C144.602 311.902 169.041 287.5 199.142 287.5C229.243 287.5 253.682 311.902 253.682 342C253.682 372.098 229.243 396.5 199.142 396.5C169.041 396.5 144.602 372.098 144.602 342Z" stroke="#000013" stroke-width="3"/>
<path d="M287.705 342C287.705 311.902 312.144 287.5 342.245 287.5C372.346 287.5 396.785 311.902 396.785 342C396.785 372.098 372.346 396.5 342.245 396.5C312.144 396.5 287.705 372.098 287.705 342Z" stroke="#000013" stroke-width="3"/>
<path d="M1.5 342C1.5 311.902 25.9391 287.5 56.04 287.5C86.1409 287.5 110.58 311.902 110.58 342C110.58 372.098 86.1409 396.5 56.04 396.5C25.9391 396.5 1.5 372.098 1.5 342Z" stroke="#000013" stroke-width="3"/>
</svg>
