<svg width="170" height="170" viewBox="0 0 170 170" fill="none" xmlns="http://www.w3.org/2000/svg">
<path d="M59.3176 15.3145C60.9538 12.7164 64.2359 11.716 67.0432 12.9597L78.3388 17.964C80.1448 18.7641 82.2182 18.6548 83.9245 17.6697L94.5969 11.5079C97.2492 9.97651 100.623 10.6262 102.539 13.0372L110.248 22.7383C111.48 24.2893 113.37 25.1617 115.34 25.0885L127.656 24.6307C130.717 24.5169 133.41 26.6679 133.995 29.6938L136.351 41.8693C136.728 43.8159 138.001 45.4701 139.782 46.3256L150.921 51.6766C153.689 53.0064 155.084 56.166 154.205 59.1136L150.669 70.9742C150.103 72.8705 150.469 74.9275 151.653 76.5158L159.062 86.4498C160.903 88.9186 160.681 92.3628 158.539 94.557L149.92 103.386C148.542 104.797 147.916 106.786 148.233 108.743L150.215 120.984C150.708 124.026 148.919 126.966 146.004 127.904L134.277 131.678C132.402 132.282 130.928 133.746 130.304 135.624L126.406 147.368C125.437 150.287 122.491 152.049 119.472 151.516L107.324 149.371C105.382 149.028 103.396 149.633 101.975 151.001L93.0892 159.558C90.8808 161.684 87.453 161.865 85.0208 159.983L75.2342 152.41C73.6696 151.199 71.6285 150.806 69.7358 151.351L57.8976 154.76C54.9555 155.607 51.8309 154.165 50.5428 151.365L45.36 140.1C44.5313 138.298 42.9022 136.997 40.9711 136.595L28.8928 134.075C25.8911 133.448 23.7855 130.714 23.9367 127.638L24.5448 115.26C24.6421 113.281 23.798 111.37 22.2709 110.111L12.7197 102.24C10.3459 100.284 9.74171 96.8832 11.2975 94.2354L17.5573 83.5812C18.5581 81.8778 18.6925 79.7944 17.9193 77.9687L13.0831 66.5493C11.8812 63.7112 12.9167 60.4236 15.5207 58.8107L25.9982 52.3208C27.6733 51.2832 28.7554 49.5049 28.9131 47.5301L29.8999 35.1785C30.1452 32.1088 32.5833 29.6874 35.6389 29.479L47.9337 28.6401C49.8995 28.506 51.6813 27.4401 52.7339 25.7687L59.3176 15.3145Z" fill="white"/>
<path d="M66.423 83.8163C66.6405 84.5298 66.5274 85.0306 66.0837 85.3187L64.73 86.2588C64.5333 86.4105 64.2933 86.4454 64.0102 86.3635C63.7367 86.2634 63.5445 86.0315 63.4336 85.6678C62.2781 81.8767 61.0015 79.8807 59.6038 79.6799C58.9488 79.5737 58.3277 79.7783 57.7407 80.2936C56.992 81.0264 56.4317 82.2521 56.0596 83.9709C55.6832 85.6757 55.7508 87.4668 56.2623 89.3444C56.4605 90.0943 56.7625 90.6367 57.1684 90.9717C57.5742 91.3066 58.2185 91.4772 59.1012 91.4833L61.0375 91.5582C62.866 91.6277 64.1524 91.9618 64.8968 92.5605C65.6551 93.155 66.2442 94.1909 66.6642 95.6683C67.5787 98.7684 67.4481 101.927 66.2723 105.145C65.0922 108.348 63.235 110.351 60.7006 111.154C57.3517 112.175 54.8394 109.937 53.1636 104.439C52.7583 103.309 52.7685 102.595 53.194 102.297L54.6247 101.31C54.8824 101.109 55.125 101.058 55.3525 101.157C55.5801 101.256 55.7472 101.48 55.8538 101.83C57.135 106.133 58.4425 108.38 59.776 108.57C60.2324 108.522 60.7583 108.255 61.354 107.768C62.3634 106.894 63.0676 105.518 63.4666 103.638C63.8795 101.754 63.9299 100.026 63.618 98.4544C63.3157 96.8648 62.9162 95.8781 62.4196 95.4943C61.9229 95.1106 60.8838 94.9151 59.3022 94.908L57.3369 94.8878C56.4681 94.8774 55.6417 94.6324 54.8577 94.1528C54.0694 93.6592 53.5238 92.9158 53.2211 91.9226C52.6795 90.1459 52.494 88.192 52.6645 86.0607C52.8306 83.9155 53.437 81.9189 54.4836 80.071C55.544 78.2188 56.9635 77.0217 58.7422 76.4795C60.5209 75.9374 62.0247 76.3122 63.2538 77.6041C64.4925 78.8778 65.5489 80.9485 66.423 83.8163Z" fill="white"/>
<path d="M76.0042 92.1562L82.2782 90.2439L78.7518 75.0129L76.0042 92.1562ZM75.471 95.713L73.9007 105.434C73.7815 106.189 73.3409 106.636 72.5788 106.777L71.5736 106.992C71.0787 107.112 70.7037 107.028 70.4485 106.738C70.189 106.435 70.099 106.065 70.1784 105.628L75.9829 73.7012C76.2307 72.3719 76.841 71.5591 77.8137 71.2626L79.5101 70.6996C80.6357 70.3565 81.3678 70.8902 81.7066 72.3005L88.7784 100.807C88.9061 101.426 88.5713 101.872 87.7739 102.145L86.3229 102.542C85.6003 102.762 85.1495 102.479 84.9706 101.693L83.0581 93.4003L75.471 95.713Z" fill="white"/>
<path d="M104.761 96.9674L93.089 100.525C92.7555 100.627 92.474 100.575 92.2444 100.37C91.9966 100.155 91.859 99.8529 91.8315 99.4638L90.3529 68.3808C90.3277 67.7004 90.6556 67.2565 91.3365 67.0489L92.5871 66.6677C92.9206 66.5661 93.2043 66.6248 93.4382 66.8441C93.6817 67.045 93.8124 67.3492 93.8302 67.7566L95.2303 96.639L104.881 93.6973C105.131 93.6211 105.342 93.664 105.512 93.8259C105.697 93.9837 105.795 94.206 105.807 94.493L105.841 95.6521C105.886 96.296 105.526 96.7344 104.761 96.9674Z" fill="white"/>
<path d="M119.039 92.6153L108.805 95.7348C108.458 95.8407 108.169 95.7911 107.94 95.5859C107.692 95.3709 107.561 95.0667 107.548 94.6733L106.147 65.7909L104.438 66.3119C104.021 66.439 103.738 66.4565 103.589 66.3645C103.449 66.2542 103.36 65.9374 103.322 65.4139L103.292 64.345C103.292 63.9474 103.34 63.6806 103.435 63.5445C103.526 63.3945 103.773 63.2581 104.176 63.1352L118.1 58.8912C118.489 58.7726 118.769 58.7712 118.941 58.8869C119.123 58.9845 119.222 59.26 119.239 59.7136L119.259 60.9C119.286 61.488 119.015 61.8688 118.445 62.0424L109.608 64.7363L110.114 75.2919L117.68 72.9856C117.931 72.9093 118.134 72.9543 118.291 73.1205C118.462 73.2825 118.56 73.5048 118.585 73.7876L118.599 74.9531C118.643 75.5969 118.311 76.0269 117.603 76.2429L110.307 78.4666L110.926 91.8549L119.117 89.358C119.381 89.2775 119.592 89.3204 119.749 89.4866C119.906 89.6528 119.997 89.8772 120.022 90.16L120.057 91.3191C120.087 91.9672 119.748 92.3993 119.039 92.6153Z" fill="white"/>
<path d="M34.2144 75.494L121.073 49.0186L134.47 92.971L47.6116 119.446L34.2144 75.494Z" fill="white"/>
<path d="M75.1845 85.3805C72.9223 85.9866 70.5944 84.6426 69.9883 82.3804C69.3821 80.1183 70.6934 77.7992 72.9883 77.1842C75.2505 76.5781 77.5784 77.9221 78.1845 80.1843C78.7907 82.4464 77.4467 84.7743 75.1845 85.3805ZM96.2994 90.0888C95.3842 89.0338 93.7771 88.9373 92.7222 89.8524C89.8261 92.4205 85.7041 93.5601 81.7721 92.7865C80.3682 92.5302 79.0662 93.4413 78.8011 94.8125C78.536 96.1836 79.4558 97.5184 80.8269 97.7835C83.5277 98.2897 86.2431 98.1946 88.8658 97.4918C91.4886 96.7891 94.019 95.4786 96.0633 93.6659C97.1182 92.7507 97.2145 91.1436 96.2906 90.0559L96.2994 90.0888ZM90.2303 79.2406C91.595 79.6129 92.989 78.7826 93.3284 77.4266C93.3981 77.162 93.6163 76.9278 93.9114 76.8488C94.3048 76.7433 94.6046 76.9441 94.7053 77.0577C95.3751 77.7215 96.3176 77.9609 97.17 77.7325C97.5635 77.6271 97.9633 77.4145 98.2952 77.0796C99.2998 76.1077 99.322 74.4854 98.3173 73.4896C96.8266 71.9915 94.6263 71.3864 92.5936 71.931C90.561 72.4757 88.9253 74.1087 88.4161 76.1426C88.0767 77.4986 88.8743 78.9012 90.2303 79.2406ZM112.666 58.1897L119.149 82.385C120.027 85.6635 119.574 89.0879 117.87 92.0393L107.694 109.665C106.014 112.575 103.218 114.729 99.9725 115.599L75.7772 122.082C66.663 124.524 61.0839 121.276 58.6505 112.194L48.7677 75.3111C46.3256 66.1969 49.5744 60.6178 58.6558 58.1844L95.5389 48.3016C104.653 45.8595 110.232 49.1083 112.666 58.1897ZM98.6636 110.714C99.2209 110.565 99.7279 110.359 100.217 110.087L98.7327 104.546C96.6771 96.8747 101.261 88.9349 108.933 86.8793L114.473 85.3947C114.464 84.835 114.389 84.2929 114.24 83.7355L107.757 59.5402C106.035 53.1144 103.291 51.5304 96.8654 53.2522L59.9823 63.135C53.5565 64.8568 51.9725 67.6004 53.6943 74.0262L63.577 110.909C65.2988 117.335 68.0424 118.919 74.4683 117.197L98.6636 110.714ZM112.513 91.1909L110.25 91.797C105.267 93.1323 102.315 98.2454 103.65 103.229L104.257 105.491L112.513 91.1909Z" fill="#0046FF"/>
</svg>
