<svg width="861" height="1006" viewBox="0 0 861 1006" fill="none" xmlns="http://www.w3.org/2000/svg">
<path opacity="0.2" d="M861 990H580.368C530.373 990 489.842 952.117 489.842 905.385V143.846C489.842 97.1139 449.313 59.2308 399.316 59.2308H0.999974V0" stroke="#000013" stroke-width="2"/>
<path d="M658 990C658 981.17 665.17 974 674 974C682.83 974 690 981.17 690 990C690 998.83 682.83 1006 674 1006C665.17 1006 658 998.83 658 990Z" fill="#0F51FF"/>
<path d="M474 263C474 254.17 481.17 247 490 247C498.83 247 506 254.17 506 263C506 271.83 498.83 279 490 279C481.17 279 474 271.83 474 263Z" fill="#0F51FF"/>
</svg>
