<svg width="218" height="129" viewBox="0 0 218 129" fill="none" xmlns="http://www.w3.org/2000/svg">
<path d="M191.514 128.76L13.939 108.382C11.9613 108.155 10.0484 107.537 8.31129 106.563C6.57419 105.589 5.04746 104.279 3.81967 102.709C2.59189 101.139 1.68747 99.3394 1.15889 97.4156C0.630308 95.4918 0.488093 93.4817 0.740484 91.502L9.64761 13.8834C10.1264 9.93037 12.1457 6.32686 15.2645 3.85959C18.3834 1.39231 22.3486 0.261701 26.2944 0.714574L203.87 21.0924C207.808 21.544 211.402 23.5455 213.866 26.656C216.33 29.7666 217.459 33.7317 217.007 37.679L208.101 115.298C207.645 119.253 205.65 122.87 202.547 125.357C199.443 127.844 195.485 128.999 191.536 128.571" fill="#E54E4D"/>
<g clip-path="url(#clip0_220_8315)">
<path d="M109.711 76.58L92.5827 73.8146C91.8256 73.6924 91.051 73.8759 90.4292 74.3248C89.8074 74.7737 89.3894 75.4513 89.2671 76.2084C89.1449 76.9655 89.3284 77.7402 89.7773 78.362C90.2263 78.9838 90.9038 79.4018 91.6609 79.524L108.789 82.2894C109.546 82.4116 110.321 82.2281 110.943 81.7792C111.564 81.3303 111.982 80.6527 112.105 79.8956C112.227 79.1385 112.043 78.3638 111.595 77.742C111.146 77.1202 110.468 76.7023 109.711 76.58ZM101.058 57.6082L106.767 58.53C107.524 58.6523 108.299 58.4687 108.921 58.0198C109.542 57.5709 109.96 56.8933 110.083 56.1362C110.205 55.3791 110.021 54.6044 109.572 53.9826C109.123 53.3608 108.446 52.9429 107.689 52.8206L101.979 51.8988C101.222 51.7766 100.448 51.9601 99.8258 52.409C99.204 52.858 98.786 53.5355 98.6637 54.2926C98.5415 55.0497 98.725 55.8244 99.174 56.4462C99.6229 57.068 100.3 57.486 101.058 57.6082ZM134.392 68.8484L125.828 67.4657L129.976 41.7734C130.059 41.2707 130.008 40.755 129.828 40.2784C129.648 39.8018 129.345 39.3812 128.95 39.0594C128.556 38.7388 128.085 38.5274 127.584 38.4465C127.083 38.3656 126.57 38.418 126.095 38.5985L116.738 42.1259L108.967 35.8331C108.573 35.5125 108.102 35.3011 107.601 35.2202C107.1 35.1393 106.587 35.1917 106.112 35.3722L96.7553 38.8996L88.984 32.6068C88.5905 32.2862 88.1195 32.0748 87.6184 31.9939C87.1173 31.913 86.6037 31.9654 86.1293 32.1459C85.653 32.327 85.2331 32.6308 84.9121 33.0265C84.591 33.4222 84.3802 33.8957 84.301 34.399L76.9265 80.0742C76.5598 82.3455 77.1104 84.6695 78.4572 86.5349C79.804 88.4003 81.8366 89.6543 84.1079 90.021L124.074 96.4736C126.345 96.8403 128.669 96.2897 130.534 94.943C132.4 93.5962 133.654 91.5636 134.021 89.2922L136.786 72.164C136.908 71.4069 136.725 70.6323 136.276 70.0105C135.827 69.3887 135.149 68.9707 134.392 68.8484ZM85.0297 84.3116C84.2726 84.1894 83.5951 83.7714 83.1461 83.1496C82.6972 82.5278 82.5137 81.7531 82.6359 80.996L89.213 40.2594L94.397 44.4356C94.8004 44.7369 95.2707 44.9361 95.7678 45.0164C96.2648 45.0966 96.7739 45.0555 97.2517 44.8965L106.609 41.3691L114.38 47.6619C114.783 47.9632 115.254 48.1624 115.751 48.2427C116.248 48.3229 116.757 48.2818 117.235 48.1228L123.469 45.7903L116.892 86.5268C116.743 87.5019 116.761 88.4954 116.945 89.4645L85.0297 84.3116ZM128.311 88.3704C128.189 89.1275 127.771 89.8051 127.149 90.254C126.527 90.7029 125.753 90.8865 124.996 90.7642C124.238 90.642 123.561 90.224 123.112 89.6022C122.663 88.9804 122.479 88.2057 122.602 87.4486L124.906 73.1751L130.616 74.0969L128.311 88.3704ZM111.555 65.1612L94.4263 62.3958C93.6692 62.2736 92.8946 62.4571 92.2728 62.906C91.651 63.3549 91.233 64.0325 91.1107 64.7896C90.9885 65.5467 91.172 66.3214 91.621 66.9432C92.0699 67.565 92.7474 67.983 93.5045 68.1052L110.633 70.8706C111.39 70.9929 112.165 70.8093 112.786 70.3604C113.408 69.9115 113.826 69.2339 113.948 68.4768C114.071 67.7197 113.887 66.945 113.438 66.3232C112.989 65.7014 112.312 65.2835 111.555 65.1612Z" fill="white"/>
</g>
<defs>
<clipPath id="clip0_220_8315">
<rect width="69.4" height="69.4" fill="white" transform="translate(79.9746 24.9128) rotate(9.17147)"/>
</clipPath>
</defs>
</svg>
