<svg width="64" height="64" viewBox="0 0 64 64" fill="none" xmlns="http://www.w3.org/2000/svg">
<path fill-rule="evenodd" clip-rule="evenodd" d="M32.2336 63.9998C35.3265 64.0224 37.8155 61.5334 37.7929 58.4405L37.4075 5.64122C37.385 2.54833 34.8593 0.0227 31.7664 0.000152692C28.6735 -0.0224471 26.1845 2.46656 26.2071 5.55949L26.5925 58.3587C26.6151 61.4516 29.1407 63.9772 32.2336 63.9998Z" fill="white"/>
<path fill-rule="evenodd" clip-rule="evenodd" d="M32.1349 50.4797L9.5314 27.8763C7.32842 25.6733 3.78257 25.6474 1.6115 27.8184C-0.559556 29.9895 -0.533653 33.5354 1.66932 35.7383L28.2617 62.3307C29.3196 63.3886 30.7483 63.989 32.2336 63.9998C33.7188 64.0107 35.139 63.431 36.1815 62.3885L62.3885 36.1815C64.5595 34.0105 64.5337 30.4646 62.3307 28.2616C60.1277 26.0587 56.5818 26.0328 54.4108 28.2038L32.1349 50.4797Z" fill="white"/>
</svg>
