<svg width="85" height="85" viewBox="0 0 85 85" fill="none" xmlns="http://www.w3.org/2000/svg">
<path fill-rule="evenodd" clip-rule="evenodd" d="M42.4639 0.497381C38.3855 0.497357 35.0793 3.8035 35.0794 7.88189L35.0794 77.5049C35.0794 81.5832 38.3855 84.8894 42.4639 84.8894C46.5423 84.8893 49.8485 81.5831 49.8485 77.5047L49.8485 7.882C49.8484 3.8036 46.5423 0.497407 42.4639 0.497381Z" fill="#1A1A1C"/>
<path fill-rule="evenodd" clip-rule="evenodd" d="M42.464 18.3253L72.0537 47.915C74.9375 50.7989 79.6132 50.7989 82.4971 47.915C85.3809 45.0312 85.3809 40.3555 82.4971 37.4717L47.6856 2.66024C46.3007 1.27536 44.4224 0.49734 42.4639 0.497381C40.5053 0.49744 38.627 1.27541 37.2422 2.6602L2.43078 37.4717C-0.453078 40.3555 -0.453078 45.0312 2.4308 47.9151C5.31465 50.7989 9.99035 50.7989 12.8742 47.9151L42.464 18.3253Z" fill="#1A1A1C"/>
</svg>
