<svg width="129" height="120" viewBox="0 0 129 120" fill="none" xmlns="http://www.w3.org/2000/svg">
<path fill-rule="evenodd" clip-rule="evenodd" d="M124.471 1.52047C115.639 61.9743 61.3959 91.3386 4.76888 98.0153C3.79649 98.1318 3.09735 99.0147 3.21386 99.9871C3.33037 100.959 4.21309 101.658 5.18548 101.542C63.3988 94.6815 118.906 64.1789 127.984 2.03126C128.128 1.06335 127.455 0.162667 126.483 0.0192736C125.515 -0.12412 124.615 0.548081 124.471 1.52047Z" fill="white"/>
<path fill-rule="evenodd" clip-rule="evenodd" d="M6.04056 99.6542C8.55891 97.8125 11.7449 95.5361 12.0989 95.2673C21.6929 87.9811 29.6423 79.5971 36.6417 69.7612C37.2108 68.9635 37.0225 67.8522 36.2249 67.2831C35.4272 66.714 34.316 66.9023 33.7469 67.6999C26.9626 77.2401 19.2553 85.3732 9.94813 92.4398C9.40592 92.8521 2.24061 97.9649 0.869406 99.1076C0.304793 99.5736 0.130155 100.013 0.0987873 100.12C-0.0894168 100.685 0.0225745 101.129 0.17493 101.451C0.349691 101.814 0.784239 102.343 1.62668 102.612C2.50944 102.89 4.47223 103.015 4.96515 103.087C12.3992 104.189 20.7923 104.772 28.4325 106.887C35.7187 108.903 42.3281 112.318 46.5672 119.16C47.0825 119.994 48.1803 120.249 49.0138 119.734C49.8473 119.219 50.1028 118.121 49.5875 117.287C44.8465 109.638 37.5244 105.717 29.3823 103.463C21.7869 101.362 13.4701 100.725 6.04056 99.6542Z" fill="white"/>
</svg>
