<svg width="83" height="83" viewBox="0 0 83 83" fill="none" xmlns="http://www.w3.org/2000/svg">
<path d="M31.1845 41.3805C28.9223 41.9866 26.5944 40.6426 25.9883 38.3804C25.3821 36.1183 26.6934 33.7992 28.9883 33.1842C31.2505 32.5781 33.5784 33.9221 34.1845 36.1843C34.7907 38.4464 33.4467 40.7743 31.1845 41.3805ZM52.2994 46.0887C51.3842 45.0338 49.7771 44.9373 48.7222 45.8524C45.8261 48.4205 41.7041 49.5601 37.7721 48.7865C36.3682 48.5302 35.0662 49.4413 34.8011 50.8125C34.536 52.1836 35.4558 53.5184 36.8269 53.7835C39.5277 54.2897 42.2431 54.1946 44.8658 53.4918C47.4886 52.7891 50.019 51.4786 52.0633 49.6659C53.1182 48.7507 53.2145 47.1436 52.2906 46.0559L52.2994 46.0887ZM46.2303 35.2406C47.595 35.6129 48.989 34.7826 49.3284 33.4266C49.3981 33.162 49.6163 32.9278 49.9114 32.8488C50.3048 32.7433 50.6046 32.9441 50.7053 33.0577C51.3751 33.7215 52.3176 33.9609 53.17 33.7325C53.5635 33.6271 53.9633 33.4145 54.2952 33.0796C55.2998 32.1077 55.322 30.4854 54.3173 29.4896C52.8266 27.9915 50.6263 27.3864 48.5936 27.931C46.561 28.4757 44.9253 30.1087 44.4161 32.1426C44.0767 33.4986 44.8743 34.9012 46.2303 35.2406ZM68.6655 14.1897L75.1486 38.385C76.0271 41.6635 75.5743 45.0879 73.8703 48.0393L63.6941 65.6649C62.0141 68.5748 59.2182 70.7294 55.9725 71.5991L31.7772 78.0822C22.663 80.5244 17.0839 77.2756 14.6505 68.1941L4.76773 31.3111C2.32558 22.1969 5.57439 16.6178 14.6558 14.1844L51.5389 4.30164C60.6531 1.85949 66.2322 5.1083 68.6655 14.1897ZM54.6636 66.7142C55.2209 66.5648 55.7279 66.3587 56.2173 66.087L54.7327 60.5464C52.6771 52.8747 57.2611 44.9349 64.9328 42.8793L70.4734 41.3947C70.464 40.835 70.389 40.2929 70.2397 39.7355L63.7566 15.5402C62.0348 9.1144 59.2912 7.53039 52.8654 9.25219L15.9823 19.135C9.55646 20.8568 7.97246 23.6004 9.69426 30.0262L19.577 66.9092C21.2988 73.3351 24.0424 74.9191 30.4683 73.1973L54.6636 66.7142ZM68.5126 47.1909L66.2505 47.797C61.2672 49.1323 58.3151 54.2454 59.6504 59.2287L60.2566 61.4908L68.5126 47.1909Z" fill="#0046FF"/>
</svg>
