<svg width="154" height="155" viewBox="0 0 154 155" fill="none" xmlns="http://www.w3.org/2000/svg">
<path d="M51.3176 5.31452C52.9538 2.71637 56.2359 1.71595 59.0432 2.95967L70.3388 7.96399C72.1448 8.76409 74.2182 8.65484 75.9245 7.66969L86.5969 1.50788C89.2492 -0.0234948 92.6234 0.62621 94.5393 3.0372L102.248 12.7383C103.48 14.2893 105.37 15.1617 107.34 15.0885L119.656 14.6307C122.717 14.5169 125.41 16.6679 125.995 19.6938L128.351 31.8693C128.728 33.8159 130.001 35.4701 131.782 36.3256L142.921 41.6766C145.689 43.0064 147.084 46.166 146.205 49.1136L142.669 60.9742C142.103 62.8705 142.469 64.9275 143.653 66.5158L151.062 76.4498C152.903 78.9186 152.681 82.3628 150.539 84.557L141.92 93.3856C140.542 94.7971 139.916 96.7857 140.233 98.7429L142.215 110.984C142.708 114.026 140.919 116.966 138.004 117.904L126.277 121.678C124.402 122.282 122.928 123.746 122.304 125.624L118.406 137.368C117.437 140.287 114.491 142.049 111.472 141.516L99.3238 139.371C97.3815 139.028 95.3962 139.633 93.9755 141.001L85.0892 149.558C82.8808 151.684 79.453 151.865 77.0208 149.983L67.2342 142.41C65.6696 141.199 63.6285 140.806 61.7358 141.351L49.8976 144.76C46.9555 145.607 43.8309 144.165 42.5428 141.365L37.36 130.1C36.5313 128.298 34.9022 126.997 32.9711 126.595L20.8928 124.075C17.8911 123.448 15.7855 120.714 15.9367 117.638L16.5448 105.26C16.6421 103.281 15.798 101.37 14.2709 100.111L4.71966 92.2401C2.34591 90.2839 1.74171 86.8832 3.29746 84.2354L9.55731 73.5812C10.5581 71.8778 10.6925 69.7944 9.9193 67.9687L5.0831 56.5493C3.88118 53.7112 4.91675 50.4236 7.52069 48.8107L17.9982 42.3208C19.6733 41.2832 20.7554 39.5049 20.9131 37.5301L21.8999 25.1785C22.1452 22.1088 24.5833 19.6874 27.6389 19.479L39.9337 18.6401C41.8995 18.506 43.6813 17.4401 44.7339 15.7687L51.3176 5.31452Z" fill="white"/>
<path d="M58.423 73.8163C58.6405 74.5298 58.5274 75.0306 58.0837 75.3187L56.73 76.2588C56.5333 76.4105 56.2933 76.4454 56.0102 76.3635C55.7367 76.2634 55.5445 76.0315 55.4336 75.6678C54.2781 71.8767 53.0015 69.8807 51.6038 69.6799C50.9488 69.5737 50.3277 69.7783 49.7407 70.2936C48.992 71.0264 48.4317 72.2521 48.0596 73.9709C47.6832 75.6757 47.7508 77.4668 48.2623 79.3444C48.4605 80.0943 48.7625 80.6367 49.1684 80.9717C49.5742 81.3066 50.2185 81.4772 51.1012 81.4833L53.0375 81.5582C54.866 81.6277 56.1524 81.9618 56.8968 82.5605C57.6551 83.155 58.2442 84.1909 58.6642 85.6683C59.5787 88.7684 59.4481 91.9272 58.2723 95.1446C57.0922 98.3481 55.235 100.351 52.7006 101.154C49.3517 102.175 46.8394 99.9368 45.1636 94.4389C44.7583 93.3088 44.7685 92.5947 45.194 92.2968L46.6247 91.3104C46.8824 91.1095 47.125 91.0585 47.3525 91.1573C47.5801 91.2561 47.7472 91.4804 47.8538 91.8301C49.135 96.1333 50.4425 98.3798 51.776 98.5696C52.2324 98.5222 52.7583 98.2549 53.354 97.7676C54.3634 96.8942 55.0676 95.5175 55.4666 93.6377C55.8795 91.7536 55.9299 90.0258 55.618 88.4544C55.3157 86.8648 54.9162 85.8781 54.4196 85.4943C53.9229 85.1106 52.8838 84.9151 51.3022 84.908L49.3369 84.8878C48.4681 84.8774 47.6417 84.6324 46.8577 84.1528C46.0694 83.6592 45.5238 82.9158 45.2211 81.9226C44.6795 80.1459 44.494 78.192 44.6645 76.0607C44.8306 73.9155 45.437 71.9189 46.4836 70.071C47.544 68.2188 48.9635 67.0217 50.7422 66.4795C52.5209 65.9374 54.0247 66.3122 55.2538 67.6041C56.4925 68.8778 57.5489 70.9485 58.423 73.8163Z" fill="white"/>
<path d="M68.0042 82.1562L74.2782 80.2439L70.7518 65.0129L68.0042 82.1562ZM67.471 85.713L65.9007 95.4338C65.7815 96.1888 65.3409 96.6365 64.5788 96.777L63.5736 96.9917C63.0787 97.112 62.7037 97.0275 62.4485 96.7384C62.189 96.4352 62.099 96.0652 62.1784 95.6282L67.9829 63.7012C68.2307 62.3719 68.841 61.5591 69.8137 61.2626L71.5101 60.6996C72.6357 60.3565 73.3678 60.8902 73.7066 62.3005L80.7784 90.8072C80.9061 91.4257 80.5713 91.8718 79.7739 92.1454L78.3229 92.5418C77.6003 92.7621 77.1495 92.479 76.9706 91.6927L75.0581 83.4003L67.471 85.713Z" fill="white"/>
<path d="M96.7615 86.9674L85.089 90.5253C84.7555 90.627 84.474 90.5752 84.2444 90.37C83.9966 90.155 83.859 89.8529 83.8315 89.4638L82.3529 58.3808C82.3277 57.7004 82.6556 57.2565 83.3365 57.0489L84.5871 56.6677C84.9206 56.5661 85.2043 56.6248 85.4382 56.8441C85.6817 57.045 85.8124 57.3492 85.8302 57.7566L87.2303 86.639L96.881 83.6973C97.1311 83.6211 97.3416 83.664 97.5124 83.8259C97.6972 83.9837 97.7953 84.206 97.8069 84.493L97.8413 85.6521C97.8857 86.296 97.5257 86.7344 96.7615 86.9674Z" fill="white"/>
<path d="M111.039 82.6153L100.805 85.7348C100.458 85.8407 100.169 85.7911 99.9396 85.5859C99.6919 85.3709 99.5612 85.0667 99.5476 84.6733L98.1475 55.7909L96.4383 56.3119C96.0214 56.439 95.7382 56.4565 95.5887 56.3645C95.4488 56.2542 95.3598 55.9374 95.3217 55.4139L95.2921 54.345C95.2923 53.9474 95.3401 53.6806 95.4353 53.5445C95.5263 53.3945 95.7732 53.2581 96.1762 53.1352L110.1 48.8912C110.489 48.7726 110.769 48.7712 110.941 48.8869C111.123 48.9845 111.222 49.26 111.239 49.7136L111.259 50.9C111.286 51.488 111.015 51.8688 110.445 52.0424L101.608 54.7363L102.114 65.2919L109.68 62.9856C109.931 62.9093 110.134 62.9543 110.291 63.1205C110.462 63.2825 110.56 63.5048 110.585 63.7876L110.599 64.9531C110.643 65.5969 110.311 66.0269 109.603 66.2429L102.307 68.4666L102.926 81.8549L111.117 79.358C111.381 79.2775 111.592 79.3204 111.749 79.4866C111.906 79.6528 111.997 79.8772 112.022 80.16L112.057 81.3191C112.087 81.9672 111.748 82.3993 111.039 82.6153Z" fill="white"/>
<path d="M26.2144 65.494L113.073 39.0186L126.47 82.971L39.6116 109.446L26.2144 65.494Z" fill="white"/>
</svg>
